<?xml version="1.0" encoding="UTF-8"?>
<!DOCTYPE svg PUBLIC "-//W3C//DTD SVG 1.1//EN" "http://www.w3.org/Graphics/SVG/1.1/DTD/svg11.dtd">
<!-- Creator: CorelDRAW 2020 (64-Bit) -->
<svg xmlns="http://www.w3.org/2000/svg" xml:space="preserve" width="118.854mm" height="29.2799mm" version="1.1" style="shape-rendering:geometricPrecision; text-rendering:geometricPrecision; image-rendering:optimizeQuality; fill-rule:evenodd; clip-rule:evenodd"
viewBox="0 0 4049.41 997.58"
 xmlns:xlink="http://www.w3.org/1999/xlink"
 xmlns:xodm="http://www.corel.com/coreldraw/odm/2003">
 <defs>
  <style type="text/css">
   <![CDATA[
    .fil0 {fill:#434342;fill-rule:nonzero}
    .fil1 {fill:#107FBA;fill-rule:nonzero}
   ]]>
  </style>
 </defs>
 <g id="Слой_x0020_1">
  <metadata id="CorelCorpID_0Corel-Layer"/>
  <g id="_2514307981648">
   <g>
    <g>
     <path class="fil0" d="M1356.46 848.83c-4.22,-6.23 -11.25,-9.96 -18.77,-9.96l-521.46 0c-12.52,0 -22.67,10.15 -22.67,22.67l0 45.34 -249.4 0 0 -45.34c0,-12.52 -10.15,-22.67 -22.67,-22.67l-498.79 0c-12.52,-0.01 -22.68,10.14 -22.69,22.66 -0,2.9 0.55,5.76 1.63,8.45l7.75 19.36c26.73,66.75 81.33,108.24 142.72,108.24l1056.17 0c61.21,0 115.99,-41.49 142.83,-108.24l7.75 -19.36c2.77,-7.01 1.86,-14.94 -2.4,-21.15zm-1204.35 103.41c-42.24,-2.42 -79.35,-28.87 -95.4,-68.02l442.11 0 0 45.34c0,12.52 10.15,22.67 22.67,22.67l-369.38 0zm1056.17 0l-392.05 0c12.52,0 22.67,-10.15 22.67,-22.67l0 -45.34 464.78 0c-16.06,39.14 -53.16,65.59 -95.4,68.02z"/>
    </g>
   </g>
   <g>
    <g>
     <path class="fil0" d="M1269.67 0l-1178.96 0c-12.52,0 -22.67,10.15 -22.67,22.67l0 770.86c0,12.52 10.15,22.67 22.67,22.67l1178.96 0c12.52,0 22.67,-10.15 22.67,-22.67l0 -770.86c0,-12.52 -10.15,-22.67 -22.67,-22.67zm-22.67 770.86l-1133.62 0 0 -725.51 1133.62 0 0 725.51z"/>
    </g>
   </g>
   <g>
   </g>
   <g>
   </g>
   <g>
   </g>
   <g>
   </g>
   <g>
   </g>
   <g>
   </g>
   <g>
   </g>
   <g>
   </g>
   <g>
   </g>
   <g>
   </g>
   <g>
   </g>
   <g>
   </g>
   <g>
   </g>
   <g>
   </g>
   <g>
   </g>
  </g>
  <polygon class="fil0" points="1530.79,645.19 1530.79,8.65 1629.81,8.65 1760.26,315.13 1760.26,8.65 1876.57,8.65 1876.57,645.19 1781.48,645.19 1651.03,315.13 1651.03,645.19 "/>
  <path id="1" class="fil0" d="M2134.06 654.62c-47.68,0 -85.4,-8.38 -113.17,-25.15 -27.77,-16.77 -47.67,-40.86 -59.73,-72.3 -12.05,-31.44 -18.07,-68.89 -18.07,-112.38l0 -236.54c0,-44.01 6.03,-81.47 18.07,-112.38 12.05,-30.91 31.96,-54.61 59.73,-71.12 27.77,-16.5 65.49,-24.76 113.17,-24.76 48.2,0 86.31,8.25 114.34,24.76 28.03,16.5 48.07,40.21 60.12,71.12 12.05,30.91 18.07,68.37 18.07,112.38l0 236.54c0,43.48 -6.02,80.94 -18.07,112.38 -12.05,31.43 -32.09,55.53 -60.12,72.3 -28.03,16.77 -66.14,25.15 -114.34,25.15zm0 -99.8c14.67,0 25.41,-3.67 32.22,-11 6.81,-7.33 11.27,-16.76 13.36,-28.29 2.1,-11.53 3.14,-23.31 3.14,-35.37l0 -306.48c0,-12.57 -1.05,-24.49 -3.14,-35.75 -2.1,-11.27 -6.55,-20.56 -13.36,-27.9 -6.81,-7.34 -17.55,-11 -32.22,-11 -13.62,0 -23.84,3.67 -30.65,11 -6.81,7.34 -11.26,16.63 -13.36,27.9 -2.1,11.26 -3.14,23.18 -3.14,35.75l0 306.48c0,12.05 0.92,23.84 2.75,35.37 1.84,11.53 6.03,20.96 12.58,28.29 6.55,7.34 17.16,11 31.83,11z"/>
  <path id="2" class="fil0" d="M2576.23 654.62c-48.72,0 -86.84,-7.99 -114.34,-23.97 -27.51,-15.98 -46.76,-39.29 -57.76,-69.94 -11,-30.65 -16.5,-68.24 -16.5,-112.77l0 -439.29 139.1 0 0 460.51c0,13.1 1.05,26.2 3.14,39.29 2.1,13.1 6.68,23.84 13.75,32.22 7.07,8.38 17.94,12.57 32.61,12.57 15.19,0 26.19,-4.19 33,-12.57 6.81,-8.38 11.13,-19.12 12.97,-32.22 1.83,-13.1 2.75,-26.2 2.75,-39.29l0 -460.51 139.88 0 0 439.29c0,44.53 -5.63,82.12 -16.9,112.77 -11.26,30.65 -30.52,53.96 -57.76,69.94 -27.24,15.98 -65.22,23.97 -113.95,23.97z"/>
  <polygon id="3" class="fil0" points="2891.87,645.19 2891.87,113.17 2795.99,113.17 2795.99,8.65 3128.41,8.65 3128.41,113.17 3033.32,113.17 3033.32,645.19 "/>
  <polygon id="4" class="fil1" points="3153.29,645.19 3153.29,524.17 3274.31,524.17 3274.31,645.19 "/>
  <path id="5" class="fil1" d="M3520.01 654.62c-48.72,0 -86.84,-7.99 -114.34,-23.97 -27.51,-15.98 -46.76,-39.29 -57.76,-69.94 -11,-30.65 -16.5,-68.24 -16.5,-112.77l0 -439.29 139.1 0 0 460.51c0,13.1 1.05,26.2 3.14,39.29 2.1,13.1 6.68,23.84 13.75,32.22 7.07,8.38 17.94,12.57 32.61,12.57 15.19,0 26.19,-4.19 33,-12.57 6.81,-8.38 11.13,-19.12 12.97,-32.22 1.83,-13.1 2.75,-26.2 2.75,-39.29l0 -460.51 139.88 0 0 439.29c0,44.53 -5.63,82.12 -16.9,112.77 -11.26,30.65 -30.52,53.96 -57.76,69.94 -27.24,15.98 -65.22,23.97 -113.95,23.97z"/>
  <polygon id="6" class="fil1" points="3753.93,645.19 3753.93,560.32 3909.53,103.73 3761,103.73 3761,8.65 4047.83,8.65 4047.83,88.02 3889.88,550.1 4049.41,550.1 4049.41,645.19 "/>
  <polygon class="fil0" points="1530.8,977 1533.25,844.4 1551.43,844.4 1574.84,951.96 1598.41,844.4 1616.42,844.4 1618.88,977 1603.98,977 1602.5,880.74 1580.08,977 1569.6,977 1547.33,880.74 1545.86,977 "/>
  <path id="1" class="fil0" d="M1704.59 977l28.16 -132.61 17.85 0 28.32 132.61 -17.52 0 -6.06 -33.4 -27.01 0 -6.38 33.4 -17.36 0zm26.19 -46.66l22.1 0 -11.13 -59.76 -10.97 59.76z"/>
  <polygon id="2" class="fil0" points="1864.95,977 1864.95,844.4 1915.38,844.4 1915.38,858.15 1883.45,858.15 1883.45,977 "/>
  <path id="3" class="fil0" d="M1990.28 977l28.16 -132.61 17.85 0 28.32 132.61 -17.52 0 -6.06 -33.4 -27.01 0 -6.38 33.4 -17.36 0zm26.19 -46.66l22.1 0 -11.13 -59.76 -10.97 59.76z"/>
  <path id="4" class="fil0" d="M2179.63 978.48c-7.2,0 -13.21,-1.36 -18.01,-4.09 -4.8,-2.73 -8.41,-6.66 -10.81,-11.79 -2.4,-5.13 -3.6,-11.19 -3.6,-18.17l0 -4.42 17.36 0c0,0.76 0,1.56 0,2.37 0,0.82 0.05,1.55 0.16,2.21 0.22,5.68 1.31,10.31 3.27,13.91 1.96,3.6 5.84,5.4 11.62,5.4 4.26,0 7.48,-1.01 9.66,-3.03 2.18,-2.02 3.66,-4.86 4.42,-8.51 0.76,-3.66 1.14,-7.88 1.14,-12.69 0,-6.88 -1.53,-12.61 -4.58,-17.19 -3.06,-4.59 -8.84,-7.15 -17.36,-7.7 -0.44,-0.11 -0.95,-0.16 -1.55,-0.16 -0.6,0 -1.2,0 -1.8,0 -0.6,0 -1.17,0 -1.72,0l0 -14.08c0.44,0 0.95,0 1.55,0 0.6,0 1.2,-0.03 1.8,-0.08 0.6,-0.05 1.06,-0.08 1.39,-0.08 8.41,-0.55 14.22,-2.76 17.44,-6.63 3.22,-3.88 4.83,-9.3 4.83,-16.29 0,-6 -1.17,-10.83 -3.52,-14.49 -2.35,-3.66 -6.52,-5.49 -12.52,-5.49 -5.79,0 -9.93,1.83 -12.44,5.49 -2.51,3.66 -3.98,8.43 -4.42,14.32 0,0.66 0,1.34 0,2.05 0,0.71 0,1.44 0,2.21l-17.52 0 0 -4.42c0,-7.09 1.31,-13.15 3.93,-18.17 2.62,-5.02 6.44,-8.9 11.46,-11.62 5.02,-2.73 11.13,-4.09 18.34,-4.09 7.31,0 13.51,1.39 18.58,4.17 5.08,2.78 8.95,6.71 11.62,11.79 2.67,5.07 4.01,11.16 4.01,18.25 0,7.97 -1.72,14.46 -5.16,19.48 -3.44,5.02 -8.05,8.35 -13.83,9.99 3.93,1.31 7.31,3.38 10.15,6.22 2.84,2.84 5.02,6.47 6.55,10.89 1.53,4.42 2.29,9.63 2.29,15.63 0,7.86 -1.09,14.71 -3.27,20.55 -2.18,5.84 -5.68,10.34 -10.48,13.51 -4.8,3.17 -11.13,4.75 -18.99,4.75z"/>
  <polygon id="5" class="fil0" points="2301.85,977 2301.85,844.4 2318.22,844.4 2318.22,936.24 2357.02,844.4 2370.28,844.4 2370.28,977 2354.08,977 2354.08,883.69 2315.6,977 "/>
  <polygon id="6" class="fil0" points="2463.69,977 2463.69,844.4 2482.19,844.4 2482.19,901.7 2516.24,901.7 2516.24,844.4 2534.74,844.4 2534.74,977 2516.24,977 2516.24,914.96 2482.19,914.96 2482.19,977 "/>
  <polygon id="7" class="fil0" points="2740.62,977 2740.62,844.4 2759.12,844.4 2759.12,901.7 2793.17,901.7 2793.17,844.4 2811.67,844.4 2811.67,977 2793.17,977 2793.17,914.96 2759.12,914.96 2759.12,977 "/>
  <path id="8" class="fil0" d="M2938.97 978.48c-8.95,0 -16.1,-1.74 -21.45,-5.24 -5.35,-3.49 -9.17,-8.49 -11.46,-14.98 -2.29,-6.49 -3.44,-14.11 -3.44,-22.84l0 -50.26c0,-8.73 1.18,-16.23 3.52,-22.51 2.34,-6.28 6.17,-11.08 11.46,-14.41 5.29,-3.33 12.42,-4.99 21.37,-4.99 8.95,0 16.04,1.69 21.28,5.07 5.24,3.38 9.03,8.19 11.38,14.41 2.35,6.22 3.52,13.7 3.52,22.43l0 50.42c0,8.62 -1.18,16.15 -3.52,22.59 -2.34,6.44 -6.14,11.43 -11.38,14.98 -5.24,3.55 -12.33,5.32 -21.28,5.32zm0 -14.57c4.91,0 8.62,-1.01 11.13,-3.03 2.51,-2.02 4.2,-4.86 5.07,-8.51 0.87,-3.66 1.31,-7.94 1.31,-12.85l0 -58.12c0,-4.91 -0.44,-9.14 -1.31,-12.69 -0.87,-3.55 -2.57,-6.28 -5.07,-8.19 -2.51,-1.91 -6.22,-2.87 -11.13,-2.87 -4.91,0 -8.65,0.95 -11.22,2.87 -2.56,1.91 -4.28,4.64 -5.15,8.19 -0.87,3.55 -1.31,7.77 -1.31,12.69l0 58.12c0,4.91 0.44,9.2 1.31,12.85 0.87,3.66 2.59,6.49 5.15,8.51 2.57,2.02 6.3,3.03 11.22,3.03z"/>
  <path id="9" class="fil0" d="M3064.3 997.14l0 -14.24c5.68,0.55 10.07,0.55 13.18,0 3.11,-0.55 5.29,-1.67 6.55,-3.36 1.25,-1.69 1.88,-3.98 1.88,-6.88 0,-2.89 -0.33,-6.36 -0.98,-10.4l-26.19 -117.87 17.52 0 11.13 56.48 6.71 42.07 5.89 -41.75 9.99 -56.81 17.68 0 -23.74 118.2c-1.09,5.35 -1.99,10.04 -2.7,14.08 -0.71,4.04 -1.69,7.48 -2.94,10.31 -1.26,2.84 -3.14,5.08 -5.65,6.71 -2.51,1.64 -6.03,2.73 -10.56,3.27 -4.53,0.55 -10.45,0.6 -17.76,0.16z"/>
  <polygon id="10" class="fil0" points="3227.12,977 3227.12,858.15 3204.69,858.15 3204.69,844.4 3267.4,844.4 3267.4,858.15 3245.62,858.15 3245.62,977 "/>
  <path id="11" class="fil0" d="M3352.78 977l0 -132.61 56.97 0 0 13.42 -38.47 0 0 41.75 4.09 0c9.61,0 17.55,1.12 23.82,3.36 6.28,2.24 10.97,6.14 14.08,11.71 3.11,5.57 4.67,13.42 4.67,23.58 0,6.88 -0.82,12.74 -2.46,17.6 -1.64,4.86 -4.17,8.87 -7.61,12.03 -3.44,3.17 -7.75,5.49 -12.93,6.96 -5.19,1.48 -11.38,2.21 -18.58,2.21l-23.58 0zm18.5 -13.26l5.24 0c5.46,0 9.96,-0.63 13.51,-1.88 3.55,-1.25 6.17,-3.74 7.86,-7.45 1.69,-3.71 2.53,-9.17 2.53,-16.37 0,-9.06 -1.72,-15.5 -5.15,-19.32 -3.44,-3.82 -9.85,-5.73 -19.24,-5.73l-4.75 0 0 50.75z"/>
  <path id="12" class="fil0" d="M3504.63 997.14l0 -14.24c5.68,0.55 10.07,0.55 13.18,0 3.11,-0.55 5.29,-1.67 6.55,-3.36 1.25,-1.69 1.88,-3.98 1.88,-6.88 0,-2.89 -0.33,-6.36 -0.98,-10.4l-26.19 -117.87 17.52 0 11.13 56.48 6.71 42.07 5.89 -41.75 9.99 -56.81 17.68 0 -23.74 118.2c-1.09,5.35 -1.99,10.04 -2.7,14.08 -0.71,4.04 -1.69,7.48 -2.94,10.31 -1.26,2.84 -3.14,5.08 -5.65,6.71 -2.51,1.64 -6.03,2.73 -10.56,3.27 -4.53,0.55 -10.45,0.6 -17.76,0.16z"/>
  <polygon id="13" class="fil0" points="3652.88,977 3652.88,844.4 3671.38,844.4 3671.38,903.33 3678.26,903.33 3702,844.4 3720.5,844.4 3694.3,907.43 3723.77,977 3705.27,977 3678.42,912.34 3671.38,912.34 3671.38,977 "/>
  <path id="14" class="fil0" d="M3842.55 978.48c-8.95,0 -16.1,-1.74 -21.45,-5.24 -5.35,-3.49 -9.17,-8.49 -11.46,-14.98 -2.29,-6.49 -3.44,-14.11 -3.44,-22.84l0 -50.26c0,-8.73 1.18,-16.23 3.52,-22.51 2.34,-6.28 6.17,-11.08 11.46,-14.41 5.29,-3.33 12.42,-4.99 21.37,-4.99 8.95,0 16.04,1.69 21.28,5.07 5.24,3.38 9.03,8.19 11.38,14.41 2.35,6.22 3.52,13.7 3.52,22.43l0 50.42c0,8.62 -1.18,16.15 -3.52,22.59 -2.34,6.44 -6.14,11.43 -11.38,14.98 -5.24,3.55 -12.33,5.32 -21.28,5.32zm0 -14.57c4.91,0 8.62,-1.01 11.13,-3.03 2.51,-2.02 4.2,-4.86 5.07,-8.51 0.87,-3.66 1.31,-7.94 1.31,-12.85l0 -58.12c0,-4.91 -0.44,-9.14 -1.31,-12.69 -0.87,-3.55 -2.57,-6.28 -5.07,-8.19 -2.51,-1.91 -6.22,-2.87 -11.13,-2.87 -4.91,0 -8.65,0.95 -11.22,2.87 -2.56,1.91 -4.28,4.64 -5.15,8.19 -0.87,3.55 -1.31,7.77 -1.31,12.69l0 58.12c0,4.91 0.44,9.2 1.31,12.85 0.87,3.66 2.59,6.49 5.15,8.51 2.57,2.02 6.3,3.03 11.22,3.03z"/>
  <path id="15" class="fil0" d="M3969.52 977l0 -132.61 30.45 0c6,0 11.22,0.65 15.63,1.97 4.42,1.31 8.1,3.33 11.05,6.05 2.95,2.73 5.13,6.19 6.55,10.4 1.42,4.2 2.13,9.14 2.13,14.81 0,5.46 -0.68,10.18 -2.04,14.16 -1.37,3.98 -3.44,7.12 -6.22,9.41 -2.78,2.29 -6.36,3.76 -10.73,4.42 5.35,1.2 9.66,3.25 12.93,6.14 3.27,2.89 5.7,6.6 7.29,11.13 1.58,4.53 2.37,9.96 2.37,16.29 0,5.68 -0.65,10.86 -1.96,15.55 -1.31,4.69 -3.36,8.68 -6.14,11.95 -2.78,3.27 -6.33,5.81 -10.64,7.61 -4.31,1.8 -9.41,2.7 -15.3,2.7l-35.37 0zm18.5 -13.26l12.44 0c8.3,0 13.83,-1.94 16.62,-5.81 2.78,-3.87 4.18,-10.12 4.18,-18.75 0,-5.57 -0.74,-10.23 -2.21,-14 -1.47,-3.77 -3.82,-6.61 -7.04,-8.51 -3.22,-1.91 -7.56,-2.87 -13.01,-2.87l-10.97 0 0 49.93zm0 -64.02l10.97 0c5.24,0 9.33,-0.74 12.28,-2.21 2.94,-1.48 5.02,-3.85 6.22,-7.12 1.2,-3.27 1.8,-7.53 1.8,-12.77 0,-6.11 -0.93,-10.53 -2.78,-13.26 -1.85,-2.73 -4.75,-4.45 -8.68,-5.15 -3.93,-0.71 -9.06,-1.07 -15.39,-1.07l-4.42 0 0 41.58z"/>
 </g>
</svg>
